<mxfile host="app.diagrams.net" modified="2022-09-15T17:40:27.501Z" agent="5.0 (Macintosh; Intel Mac OS X 10_15_7) AppleWebKit/537.36 (KHTML, like Gecko) Chrome/105.0.0.0 Safari/537.36" etag="03oSK6eNdT4UlhEXHqIA" version="20.3.0" type="github" pages="2">
  <diagram id="wAVko1wuCDWjyeYh2c3e" name="Page-1">
    <mxGraphModel dx="2494" dy="615" grid="1" gridSize="10" guides="1" tooltips="1" connect="1" arrows="1" fold="1" page="1" pageScale="1" pageWidth="850" pageHeight="1100" math="0" shadow="0">
      <root>
        <mxCell id="0" />
        <mxCell id="1" parent="0" />
        <mxCell id="eOfyg0MxlrnqCq6HVbgy-1" value="&lt;h1&gt;&lt;span style=&quot;background-color: initial;&quot;&gt;Index&lt;/span&gt;&lt;br&gt;&lt;/h1&gt;&lt;div&gt;&lt;span style=&quot;background-color: initial;&quot;&gt;&lt;br&gt;&lt;/span&gt;&lt;/div&gt;&lt;div&gt;&lt;span style=&quot;background-color: initial;&quot;&gt;&lt;br&gt;&lt;/span&gt;&lt;/div&gt;&lt;div&gt;&lt;span style=&quot;background-color: initial;&quot;&gt;Index is used to speed up the data access in relational database.&amp;nbsp;&lt;/span&gt;&lt;/div&gt;&lt;div&gt;&lt;span style=&quot;background-color: initial;&quot;&gt;For example if we are trying to find an employee with name swathi, So if we give indexing to the EMPLOYEE NAME COLUMN , It takes very less time for searching..&lt;/span&gt;&lt;/div&gt;" style="text;html=1;strokeColor=none;fillColor=none;spacing=5;spacingTop=-20;whiteSpace=wrap;overflow=hidden;rounded=0;" vertex="1" parent="1">
          <mxGeometry x="-830" y="20" width="370" height="150" as="geometry" />
        </mxCell>
        <mxCell id="eOfyg0MxlrnqCq6HVbgy-2" value="&lt;h1&gt;SubQuery&lt;/h1&gt;&lt;p&gt;&lt;span style=&quot;box-sizing: inherit; color: mediumblue; font-family: Consolas, Menlo, &amp;quot;courier new&amp;quot;, monospace; font-size: 15px; background-color: rgb(255, 255, 255);&quot; class=&quot;sqlkeywordcolor&quot;&gt;SELECT&lt;/span&gt;&lt;span style=&quot;font-family: Consolas, Menlo, &amp;quot;courier new&amp;quot;, monospace; font-size: 15px; background-color: rgb(255, 255, 255);&quot;&gt;&amp;nbsp;*&amp;nbsp;&lt;/span&gt;&lt;span style=&quot;box-sizing: inherit; color: mediumblue; font-family: Consolas, Menlo, &amp;quot;courier new&amp;quot;, monospace; font-size: 15px; background-color: rgb(255, 255, 255);&quot; class=&quot;sqlkeywordcolor&quot;&gt;FROM&lt;/span&gt;&lt;span style=&quot;font-family: Consolas, Menlo, &amp;quot;courier new&amp;quot;, monospace; font-size: 15px; background-color: rgb(255, 255, 255);&quot;&gt;&amp;nbsp;Customers&lt;/span&gt;&lt;br style=&quot;box-sizing: inherit; font-family: Consolas, Menlo, &amp;quot;courier new&amp;quot;, monospace; font-size: 15px; background-color: rgb(255, 255, 255);&quot;&gt;&lt;span style=&quot;box-sizing: inherit; color: red; font-family: Consolas, Menlo, &amp;quot;courier new&amp;quot;, monospace; font-size: 15px; background-color: rgb(255, 255, 255);&quot; class=&quot;sqlnumbercolor&quot;&gt;&lt;/span&gt;&lt;span style=&quot;font-family: Consolas, Menlo, &amp;quot;courier new&amp;quot;, monospace; font-size: 15px; background-color: rgb(255, 255, 255);&quot;&gt;&lt;/span&gt;&lt;span style=&quot;box-sizing: inherit; color: mediumblue; font-family: Consolas, Menlo, &amp;quot;courier new&amp;quot;, monospace; font-size: 15px; background-color: rgb(255, 255, 255);&quot; class=&quot;sqlkeywordcolor&quot;&gt;WHERE&lt;/span&gt;&lt;span style=&quot;font-family: Consolas, Menlo, &amp;quot;courier new&amp;quot;, monospace; font-size: 15px; background-color: rgb(255, 255, 255);&quot;&gt;&amp;nbsp;Country&amp;nbsp;&lt;/span&gt;&lt;span style=&quot;box-sizing: inherit; color: mediumblue; font-family: Consolas, Menlo, &amp;quot;courier new&amp;quot;, monospace; font-size: 15px; background-color: rgb(255, 255, 255);&quot; class=&quot;sqlkeywordcolor&quot;&gt;IN&lt;/span&gt;&lt;span style=&quot;font-family: Consolas, Menlo, &amp;quot;courier new&amp;quot;, monospace; font-size: 15px; background-color: rgb(255, 255, 255);&quot;&gt;&amp;nbsp;(&lt;/span&gt;&lt;span style=&quot;box-sizing: inherit; color: mediumblue; font-family: Consolas, Menlo, &amp;quot;courier new&amp;quot;, monospace; font-size: 15px; background-color: rgb(255, 255, 255);&quot; class=&quot;sqlkeywordcolor&quot;&gt;SELECT&lt;/span&gt;&lt;span style=&quot;font-family: Consolas, Menlo, &amp;quot;courier new&amp;quot;, monospace; font-size: 15px; background-color: rgb(255, 255, 255);&quot;&gt;&amp;nbsp;Country&amp;nbsp;&lt;/span&gt;&lt;span style=&quot;box-sizing: inherit; color: mediumblue; font-family: Consolas, Menlo, &amp;quot;courier new&amp;quot;, monospace; font-size: 15px; background-color: rgb(255, 255, 255);&quot; class=&quot;sqlkeywordcolor&quot;&gt;FROM&lt;/span&gt;&lt;span style=&quot;font-family: Consolas, Menlo, &amp;quot;courier new&amp;quot;, monospace; font-size: 15px; background-color: rgb(255, 255, 255);&quot;&gt;&amp;nbsp;Suppliers);&lt;/span&gt;&lt;br&gt;&lt;/p&gt;" style="text;html=1;strokeColor=none;fillColor=none;spacing=5;spacingTop=-20;whiteSpace=wrap;overflow=hidden;rounded=0;" vertex="1" parent="1">
          <mxGeometry x="-440" y="20" width="450" height="150" as="geometry" />
        </mxCell>
        <mxCell id="eOfyg0MxlrnqCq6HVbgy-3" value="&lt;h1&gt;Inner Join&lt;/h1&gt;&lt;div&gt;*&lt;/div&gt;&lt;span style=&quot;font-family: Verdana, sans-serif; font-size: 15px; background-color: rgb(255, 255, 255);&quot;&gt;selects all orders with customer information:&lt;/span&gt;&lt;p&gt;&lt;span style=&quot;box-sizing: inherit; color: mediumblue; font-family: Consolas, Menlo, &amp;quot;courier new&amp;quot;, monospace; font-size: 15px; background-color: rgb(255, 255, 255);&quot; class=&quot;sqlkeywordcolor&quot;&gt;SELECT&lt;/span&gt;&lt;span style=&quot;font-family: Consolas, Menlo, &amp;quot;courier new&amp;quot;, monospace; font-size: 15px; background-color: rgb(255, 255, 255);&quot;&gt;&amp;nbsp;Orders.OrderID, Customers.CustomerName&lt;/span&gt;&lt;br style=&quot;box-sizing: inherit; font-family: Consolas, Menlo, &amp;quot;courier new&amp;quot;, monospace; font-size: 15px; background-color: rgb(255, 255, 255);&quot;&gt;&lt;span style=&quot;box-sizing: inherit; color: mediumblue; font-family: Consolas, Menlo, &amp;quot;courier new&amp;quot;, monospace; font-size: 15px; background-color: rgb(255, 255, 255);&quot; class=&quot;sqlkeywordcolor&quot;&gt;FROM&lt;/span&gt;&lt;span style=&quot;font-family: Consolas, Menlo, &amp;quot;courier new&amp;quot;, monospace; font-size: 15px; background-color: rgb(255, 255, 255);&quot;&gt;&amp;nbsp;Orders&lt;/span&gt;&lt;br style=&quot;box-sizing: inherit; font-family: Consolas, Menlo, &amp;quot;courier new&amp;quot;, monospace; font-size: 15px; background-color: rgb(255, 255, 255);&quot;&gt;&lt;span style=&quot;box-sizing: inherit; color: mediumblue; font-family: Consolas, Menlo, &amp;quot;courier new&amp;quot;, monospace; font-size: 15px; background-color: rgb(255, 255, 255);&quot; class=&quot;sqlkeywordcolor&quot;&gt;INNER&lt;/span&gt;&lt;span style=&quot;font-family: Consolas, Menlo, &amp;quot;courier new&amp;quot;, monospace; font-size: 15px; background-color: rgb(255, 255, 255);&quot;&gt;&amp;nbsp;&lt;/span&gt;&lt;span style=&quot;box-sizing: inherit; color: mediumblue; font-family: Consolas, Menlo, &amp;quot;courier new&amp;quot;, monospace; font-size: 15px; background-color: rgb(255, 255, 255);&quot; class=&quot;sqlkeywordcolor&quot;&gt;JOIN&lt;/span&gt;&lt;span style=&quot;font-family: Consolas, Menlo, &amp;quot;courier new&amp;quot;, monospace; font-size: 15px; background-color: rgb(255, 255, 255);&quot;&gt;&amp;nbsp;&lt;/span&gt;&lt;span style=&quot;box-sizing: inherit; color: red; font-family: Consolas, Menlo, &amp;quot;courier new&amp;quot;, monospace; font-size: 15px; background-color: rgb(255, 255, 255);&quot; class=&quot;sqlnumbercolor&quot;&gt;&lt;/span&gt;&lt;span style=&quot;font-family: Consolas, Menlo, &amp;quot;courier new&amp;quot;, monospace; font-size: 15px; background-color: rgb(255, 255, 255);&quot;&gt;Customers &lt;font color=&quot;#0000cd&quot;&gt;WHERE&lt;/font&gt;&lt;/span&gt;&lt;span style=&quot;font-family: Consolas, Menlo, &amp;quot;courier new&amp;quot;, monospace; font-size: 15px; background-color: rgb(255, 255, 255);&quot;&gt;&amp;nbsp;Orders.CustomerID = Customers.CustomerID;&lt;/span&gt;&lt;br&gt;&lt;/p&gt;" style="text;html=1;strokeColor=none;fillColor=none;spacing=5;spacingTop=-20;whiteSpace=wrap;overflow=hidden;rounded=0;" vertex="1" parent="1">
          <mxGeometry x="-430" y="170" width="430" height="180" as="geometry" />
        </mxCell>
        <mxCell id="eOfyg0MxlrnqCq6HVbgy-5" value="Select&lt;br&gt;Insert&lt;br&gt;Update&amp;nbsp;&lt;br&gt;Create&lt;br&gt;aggregate functions&lt;br&gt;group by&lt;br&gt;having&lt;br&gt;joins&lt;br&gt;where&lt;br&gt;what is index:&amp;nbsp;&lt;br&gt;" style="text;html=1;strokeColor=none;fillColor=none;align=center;verticalAlign=middle;whiteSpace=wrap;rounded=0;" vertex="1" parent="1">
          <mxGeometry x="610" y="30" width="190" height="180" as="geometry" />
        </mxCell>
        <mxCell id="eOfyg0MxlrnqCq6HVbgy-6" value="&lt;h1&gt;Left Join&lt;/h1&gt;&lt;font style=&quot;font-size: 24px; background-color: rgb(248, 249, 250);&quot;&gt;&lt;b&gt;&amp;nbsp;&lt;/b&gt;&lt;/font&gt;&lt;font style=&quot;font-family: Verdana, sans-serif; background-color: rgb(255, 255, 255); font-size: 10px;&quot;&gt;Let us select all customers, and any orders they might have:&lt;/font&gt;&lt;div&gt;&lt;div&gt;&lt;font style=&quot;font-size: 14px;&quot;&gt;SELECT Customers.CustomerName, Orders.OrderID&lt;/font&gt;&lt;/div&gt;&lt;div&gt;&lt;font style=&quot;font-size: 14px;&quot;&gt;FROM Customers&lt;/font&gt;&lt;/div&gt;&lt;div&gt;&lt;font style=&quot;font-size: 14px;&quot;&gt;LEFT JOIN Orders&lt;/font&gt;&lt;/div&gt;&lt;div&gt;&lt;font size=&quot;3&quot;&gt;ON Customers.CustomerID=Orders.CustomerID&lt;/font&gt;&lt;/div&gt;&lt;div&gt;&lt;font size=&quot;3&quot;&gt;ORDER BY Customers.CustomerName;&lt;/font&gt;&lt;/div&gt;&lt;/div&gt;" style="text;html=1;strokeColor=none;fillColor=none;spacing=5;spacingTop=-20;whiteSpace=wrap;overflow=hidden;rounded=0;" vertex="1" parent="1">
          <mxGeometry x="-820" y="370" width="370" height="190" as="geometry" />
        </mxCell>
        <mxCell id="eOfyg0MxlrnqCq6HVbgy-8" style="edgeStyle=orthogonalEdgeStyle;rounded=0;orthogonalLoop=1;jettySize=auto;html=1;exitX=0.5;exitY=0;exitDx=0;exitDy=0;fontSize=14;entryX=0.5;entryY=0;entryDx=0;entryDy=0;" edge="1" parent="1" source="eOfyg0MxlrnqCq6HVbgy-7" target="eOfyg0MxlrnqCq6HVbgy-7">
          <mxGeometry relative="1" as="geometry">
            <mxPoint x="-620" y="640" as="targetPoint" />
          </mxGeometry>
        </mxCell>
        <mxCell id="eOfyg0MxlrnqCq6HVbgy-7" value="&lt;h1&gt;&lt;span style=&quot;background-color: initial;&quot;&gt;Right Join&lt;/span&gt;&lt;/h1&gt;&lt;div&gt;&lt;span style=&quot;font-family: Verdana, sans-serif; font-size: 15px; background-color: rgb(255, 255, 255);&quot;&gt;Let us select all employees, and any orders they might have placed:&lt;/span&gt;&lt;span style=&quot;background-color: initial;&quot;&gt;&lt;br&gt;&lt;/span&gt;&lt;/div&gt;&lt;h1&gt;&lt;span style=&quot;box-sizing: inherit; color: mediumblue; font-family: Consolas, Menlo, &amp;quot;courier new&amp;quot;, monospace; font-size: 15px; font-weight: 400; background-color: rgb(255, 255, 255);&quot; class=&quot;sqlkeywordcolor&quot;&gt;SELECT&lt;/span&gt;&lt;span style=&quot;font-family: Consolas, Menlo, &amp;quot;courier new&amp;quot;, monospace; font-size: 15px; font-weight: 400; background-color: rgb(255, 255, 255);&quot;&gt;&amp;nbsp;Orders.OrderID, Employees.LastName, Employees.FirstName&lt;/span&gt;&lt;br style=&quot;box-sizing: inherit; font-family: Consolas, Menlo, &amp;quot;courier new&amp;quot;, monospace; font-size: 15px; font-weight: 400; background-color: rgb(255, 255, 255);&quot;&gt;&lt;span style=&quot;box-sizing: inherit; color: mediumblue; font-family: Consolas, Menlo, &amp;quot;courier new&amp;quot;, monospace; font-size: 15px; font-weight: 400; background-color: rgb(255, 255, 255);&quot; class=&quot;sqlkeywordcolor&quot;&gt;FROM&lt;/span&gt;&lt;span style=&quot;font-family: Consolas, Menlo, &amp;quot;courier new&amp;quot;, monospace; font-size: 15px; font-weight: 400; background-color: rgb(255, 255, 255);&quot;&gt;&amp;nbsp;Orders&lt;/span&gt;&lt;br style=&quot;box-sizing: inherit; font-family: Consolas, Menlo, &amp;quot;courier new&amp;quot;, monospace; font-size: 15px; font-weight: 400; background-color: rgb(255, 255, 255);&quot;&gt;&lt;span style=&quot;box-sizing: inherit; color: mediumblue; font-family: Consolas, Menlo, &amp;quot;courier new&amp;quot;, monospace; font-size: 15px; font-weight: 400; background-color: rgb(255, 255, 255);&quot; class=&quot;sqlkeywordcolor&quot;&gt;RIGHT&lt;/span&gt;&lt;span style=&quot;font-family: Consolas, Menlo, &amp;quot;courier new&amp;quot;, monospace; font-size: 15px; font-weight: 400; background-color: rgb(255, 255, 255);&quot;&gt;&amp;nbsp;&lt;/span&gt;&lt;span style=&quot;box-sizing: inherit; color: mediumblue; font-family: Consolas, Menlo, &amp;quot;courier new&amp;quot;, monospace; font-size: 15px; font-weight: 400; background-color: rgb(255, 255, 255);&quot; class=&quot;sqlkeywordcolor&quot;&gt;JOIN&lt;/span&gt;&lt;span style=&quot;font-family: Consolas, Menlo, &amp;quot;courier new&amp;quot;, monospace; font-size: 15px; font-weight: 400; background-color: rgb(255, 255, 255);&quot;&gt;&amp;nbsp;Employees&amp;nbsp;&lt;/span&gt;&lt;span style=&quot;box-sizing: inherit; color: mediumblue; font-family: Consolas, Menlo, &amp;quot;courier new&amp;quot;, monospace; font-size: 15px; font-weight: 400; background-color: rgb(255, 255, 255);&quot; class=&quot;sqlkeywordcolor&quot;&gt;ON&lt;/span&gt;&lt;span style=&quot;font-family: Consolas, Menlo, &amp;quot;courier new&amp;quot;, monospace; font-size: 15px; font-weight: 400; background-color: rgb(255, 255, 255);&quot;&gt;&amp;nbsp;Orders.EmployeeID = Employees.EmployeeID&lt;/span&gt;&lt;br style=&quot;box-sizing: inherit; font-family: Consolas, Menlo, &amp;quot;courier new&amp;quot;, monospace; font-size: 15px; font-weight: 400; background-color: rgb(255, 255, 255);&quot;&gt;&lt;span style=&quot;box-sizing: inherit; color: red; font-family: Consolas, Menlo, &amp;quot;courier new&amp;quot;, monospace; font-size: 15px; font-weight: 400; background-color: rgb(255, 255, 255);&quot; class=&quot;sqlnumbercolor&quot;&gt;&lt;/span&gt;&lt;span style=&quot;font-family: Consolas, Menlo, &amp;quot;courier new&amp;quot;, monospace; font-size: 15px; font-weight: 400; background-color: rgb(255, 255, 255);&quot;&gt;&lt;/span&gt;&lt;span style=&quot;box-sizing: inherit; color: mediumblue; font-family: Consolas, Menlo, &amp;quot;courier new&amp;quot;, monospace; font-size: 15px; font-weight: 400; background-color: rgb(255, 255, 255);&quot; class=&quot;sqlkeywordcolor&quot;&gt;ORDER&lt;/span&gt;&lt;span style=&quot;font-family: Consolas, Menlo, &amp;quot;courier new&amp;quot;, monospace; font-size: 15px; font-weight: 400; background-color: rgb(255, 255, 255);&quot;&gt;&amp;nbsp;&lt;/span&gt;&lt;span style=&quot;box-sizing: inherit; color: mediumblue; font-family: Consolas, Menlo, &amp;quot;courier new&amp;quot;, monospace; font-size: 15px; font-weight: 400; background-color: rgb(255, 255, 255);&quot; class=&quot;sqlkeywordcolor&quot;&gt;BY&lt;/span&gt;&lt;span style=&quot;font-family: Consolas, Menlo, &amp;quot;courier new&amp;quot;, monospace; font-size: 15px; font-weight: 400; background-color: rgb(255, 255, 255);&quot;&gt;&amp;nbsp;Orders.OrderID;&lt;/span&gt;&lt;br&gt;&lt;/h1&gt;" style="text;html=1;strokeColor=none;fillColor=none;spacing=5;spacingTop=-20;whiteSpace=wrap;overflow=hidden;rounded=0;" vertex="1" parent="1">
          <mxGeometry x="-840" y="650" width="430" height="290" as="geometry" />
        </mxCell>
        <mxCell id="eOfyg0MxlrnqCq6HVbgy-9" value="&lt;h1&gt;Self Join?&lt;/h1&gt;&lt;p&gt;Doubt with example?&lt;/p&gt;" style="text;html=1;strokeColor=none;fillColor=none;spacing=5;spacingTop=-20;whiteSpace=wrap;overflow=hidden;rounded=0;fontSize=14;" vertex="1" parent="1">
          <mxGeometry x="-410" y="480" width="345" height="115" as="geometry" />
        </mxCell>
        <mxCell id="eOfyg0MxlrnqCq6HVbgy-10" value="&lt;h1&gt;&lt;span style=&quot;background-color: initial;&quot;&gt;Union&lt;/span&gt;&lt;/h1&gt;&lt;div&gt;&lt;span style=&quot;font-family: Verdana, sans-serif; font-size: 15px; background-color: rgb(255, 255, 255);&quot;&gt;returns the cities (only distinct values) from both the &quot;Customers&quot; and the &quot;Suppliers&quot; table. If we wanna return all values icluding duplicates then we use &quot;UNION ALL&quot;.&lt;/span&gt;&lt;span style=&quot;background-color: initial;&quot;&gt;&lt;br&gt;&lt;/span&gt;&lt;/div&gt;&lt;h1&gt;&lt;span style=&quot;box-sizing: inherit; color: mediumblue; font-family: Consolas, Menlo, &amp;quot;courier new&amp;quot;, monospace; font-size: 15px; font-weight: 400; background-color: rgb(255, 255, 255);&quot; class=&quot;sqlkeywordcolor&quot;&gt;SELECT&lt;/span&gt;&lt;span style=&quot;font-family: Consolas, Menlo, &amp;quot;courier new&amp;quot;, monospace; font-size: 15px; font-weight: 400; background-color: rgb(255, 255, 255);&quot;&gt;&amp;nbsp;City&amp;nbsp;&lt;/span&gt;&lt;span style=&quot;box-sizing: inherit; color: mediumblue; font-family: Consolas, Menlo, &amp;quot;courier new&amp;quot;, monospace; font-size: 15px; font-weight: 400; background-color: rgb(255, 255, 255);&quot; class=&quot;sqlkeywordcolor&quot;&gt;FROM&lt;/span&gt;&lt;span style=&quot;font-family: Consolas, Menlo, &amp;quot;courier new&amp;quot;, monospace; font-size: 15px; font-weight: 400; background-color: rgb(255, 255, 255);&quot;&gt;&amp;nbsp;Customers&lt;/span&gt;&lt;br style=&quot;box-sizing: inherit; font-family: Consolas, Menlo, &amp;quot;courier new&amp;quot;, monospace; font-size: 15px; font-weight: 400; background-color: rgb(255, 255, 255);&quot;&gt;&lt;span style=&quot;box-sizing: inherit; color: mediumblue; font-family: Consolas, Menlo, &amp;quot;courier new&amp;quot;, monospace; font-size: 15px; font-weight: 400; background-color: rgb(255, 255, 255);&quot; class=&quot;sqlkeywordcolor&quot;&gt;UNION&lt;/span&gt;&lt;br style=&quot;box-sizing: inherit; font-family: Consolas, Menlo, &amp;quot;courier new&amp;quot;, monospace; font-size: 15px; font-weight: 400; background-color: rgb(255, 255, 255);&quot;&gt;&lt;span style=&quot;box-sizing: inherit; color: mediumblue; font-family: Consolas, Menlo, &amp;quot;courier new&amp;quot;, monospace; font-size: 15px; font-weight: 400; background-color: rgb(255, 255, 255);&quot; class=&quot;sqlkeywordcolor&quot;&gt;SELECT&lt;/span&gt;&lt;span style=&quot;font-family: Consolas, Menlo, &amp;quot;courier new&amp;quot;, monospace; font-size: 15px; font-weight: 400; background-color: rgb(255, 255, 255);&quot;&gt;&amp;nbsp;City&amp;nbsp;&lt;/span&gt;&lt;span style=&quot;box-sizing: inherit; color: mediumblue; font-family: Consolas, Menlo, &amp;quot;courier new&amp;quot;, monospace; font-size: 15px; font-weight: 400; background-color: rgb(255, 255, 255);&quot; class=&quot;sqlkeywordcolor&quot;&gt;FROM&lt;/span&gt;&lt;span style=&quot;font-family: Consolas, Menlo, &amp;quot;courier new&amp;quot;, monospace; font-size: 15px; font-weight: 400; background-color: rgb(255, 255, 255);&quot;&gt;&amp;nbsp;Suppliers&lt;/span&gt;&lt;br style=&quot;box-sizing: inherit; font-family: Consolas, Menlo, &amp;quot;courier new&amp;quot;, monospace; font-size: 15px; font-weight: 400; background-color: rgb(255, 255, 255);&quot;&gt;&lt;span style=&quot;box-sizing: inherit; color: mediumblue; font-family: Consolas, Menlo, &amp;quot;courier new&amp;quot;, monospace; font-size: 15px; font-weight: 400; background-color: rgb(255, 255, 255);&quot; class=&quot;sqlkeywordcolor&quot;&gt;ORDER&lt;/span&gt;&lt;span style=&quot;font-family: Consolas, Menlo, &amp;quot;courier new&amp;quot;, monospace; font-size: 15px; font-weight: 400; background-color: rgb(255, 255, 255);&quot;&gt;&amp;nbsp;&lt;/span&gt;&lt;span style=&quot;box-sizing: inherit; color: mediumblue; font-family: Consolas, Menlo, &amp;quot;courier new&amp;quot;, monospace; font-size: 15px; font-weight: 400; background-color: rgb(255, 255, 255);&quot; class=&quot;sqlkeywordcolor&quot;&gt;BY&lt;/span&gt;&lt;span style=&quot;font-family: Consolas, Menlo, &amp;quot;courier new&amp;quot;, monospace; font-size: 15px; font-weight: 400; background-color: rgb(255, 255, 255);&quot;&gt;&amp;nbsp;City;&lt;/span&gt;&lt;br&gt;&lt;/h1&gt;" style="text;html=1;strokeColor=none;fillColor=none;spacing=5;spacingTop=-20;whiteSpace=wrap;overflow=hidden;rounded=0;fontSize=14;" vertex="1" parent="1">
          <mxGeometry y="710" width="350" height="350" as="geometry" />
        </mxCell>
        <mxCell id="eOfyg0MxlrnqCq6HVbgy-11" value="&lt;h1&gt;Group By&lt;/h1&gt;&lt;div&gt;&lt;span style=&quot;font-family: Verdana, sans-serif; font-size: 15px; background-color: rgb(255, 255, 255);&quot;&gt;lists the number of customers in each country&lt;/span&gt;&lt;br&gt;&lt;/div&gt;&lt;div&gt;&lt;br&gt;&lt;/div&gt;&lt;div&gt;&lt;div&gt;SELECT COUNT(CustomerID), Country&lt;/div&gt;&lt;div&gt;FROM Customers&lt;/div&gt;&lt;div&gt;GROUP BY Country;&lt;/div&gt;&lt;/div&gt;" style="text;html=1;strokeColor=none;fillColor=none;spacing=5;spacingTop=-20;whiteSpace=wrap;overflow=hidden;rounded=0;fontSize=14;" vertex="1" parent="1">
          <mxGeometry x="-395" y="570" width="350" height="170" as="geometry" />
        </mxCell>
        <mxCell id="eOfyg0MxlrnqCq6HVbgy-12" value="&lt;h1&gt;Where&lt;/h1&gt;&lt;div&gt;&lt;span style=&quot;box-sizing: inherit; color: mediumblue; font-family: Consolas, Menlo, &amp;quot;courier new&amp;quot;, monospace; font-size: 15px; background-color: rgb(255, 255, 255);&quot; class=&quot;sqlkeywordcolor&quot;&gt;SELECT&lt;/span&gt;&lt;span style=&quot;font-family: Consolas, Menlo, &amp;quot;courier new&amp;quot;, monospace; font-size: 15px; background-color: rgb(255, 255, 255);&quot;&gt;&amp;nbsp;*&amp;nbsp;&lt;/span&gt;&lt;span style=&quot;box-sizing: inherit; color: mediumblue; font-family: Consolas, Menlo, &amp;quot;courier new&amp;quot;, monospace; font-size: 15px; background-color: rgb(255, 255, 255);&quot; class=&quot;sqlkeywordcolor&quot;&gt;FROM&lt;/span&gt;&lt;span style=&quot;font-family: Consolas, Menlo, &amp;quot;courier new&amp;quot;, monospace; font-size: 15px; background-color: rgb(255, 255, 255);&quot;&gt;&amp;nbsp;Customers&lt;/span&gt;&lt;br style=&quot;box-sizing: inherit; font-family: Consolas, Menlo, &amp;quot;courier new&amp;quot;, monospace; font-size: 15px; background-color: rgb(255, 255, 255);&quot;&gt;&lt;span style=&quot;box-sizing: inherit; color: mediumblue; font-family: Consolas, Menlo, &amp;quot;courier new&amp;quot;, monospace; font-size: 15px; background-color: rgb(255, 255, 255);&quot; class=&quot;sqlkeywordcolor&quot;&gt;WHERE&lt;/span&gt;&lt;span style=&quot;font-family: Consolas, Menlo, &amp;quot;courier new&amp;quot;, monospace; font-size: 15px; background-color: rgb(255, 255, 255);&quot;&gt;&amp;nbsp;Country =&amp;nbsp;&lt;/span&gt;&lt;span style=&quot;box-sizing: inherit; color: brown; font-family: Consolas, Menlo, &amp;quot;courier new&amp;quot;, monospace; font-size: 15px; background-color: rgb(255, 255, 255);&quot; class=&quot;sqlstringcolor&quot;&gt;&#39;Mexico&#39;&lt;/span&gt;&lt;span style=&quot;font-family: Consolas, Menlo, &amp;quot;courier new&amp;quot;, monospace; font-size: 15px; background-color: rgb(255, 255, 255);&quot;&gt;;&lt;/span&gt;&lt;br&gt;&lt;/div&gt;" style="text;html=1;strokeColor=none;fillColor=none;spacing=5;spacingTop=-20;whiteSpace=wrap;overflow=hidden;rounded=0;fontSize=14;" vertex="1" parent="1">
          <mxGeometry x="-830" y="950" width="420" height="100" as="geometry" />
        </mxCell>
        <mxCell id="eOfyg0MxlrnqCq6HVbgy-13" value="&lt;h1&gt;&lt;span style=&quot;background-color: initial;&quot;&gt;AND/OR&lt;/span&gt;&lt;/h1&gt;&lt;div&gt;AND operator returns the rows where both the given conditions are true. Or&amp;nbsp;&lt;/div&gt;operator returns the rows where either of the given conditions is true&lt;h1&gt;&lt;span style=&quot;box-sizing: inherit; color: mediumblue; font-family: Consolas, Menlo, &amp;quot;courier new&amp;quot;, monospace; font-size: 15px; font-weight: 400; background-color: rgb(255, 255, 255);&quot; class=&quot;sqlkeywordcolor&quot;&gt;SELECT&lt;/span&gt;&lt;span style=&quot;font-family: Consolas, Menlo, &amp;quot;courier new&amp;quot;, monospace; font-size: 15px; font-weight: 400; background-color: rgb(255, 255, 255);&quot;&gt;&amp;nbsp;*&amp;nbsp;&lt;/span&gt;&lt;span style=&quot;box-sizing: inherit; color: mediumblue; font-family: Consolas, Menlo, &amp;quot;courier new&amp;quot;, monospace; font-size: 15px; font-weight: 400; background-color: rgb(255, 255, 255);&quot; class=&quot;sqlkeywordcolor&quot;&gt;FROM&lt;/span&gt;&lt;span style=&quot;font-family: Consolas, Menlo, &amp;quot;courier new&amp;quot;, monospace; font-size: 15px; font-weight: 400; background-color: rgb(255, 255, 255);&quot;&gt;&amp;nbsp;Customers&lt;/span&gt;&lt;br style=&quot;box-sizing: inherit; font-family: Consolas, Menlo, &amp;quot;courier new&amp;quot;, monospace; font-size: 15px; font-weight: 400; background-color: rgb(255, 255, 255);&quot;&gt;&lt;span style=&quot;box-sizing: inherit; color: red; font-family: Consolas, Menlo, &amp;quot;courier new&amp;quot;, monospace; font-size: 15px; font-weight: 400; background-color: rgb(255, 255, 255);&quot; class=&quot;sqlnumbercolor&quot;&gt;&lt;/span&gt;&lt;span style=&quot;font-family: Consolas, Menlo, &amp;quot;courier new&amp;quot;, monospace; font-size: 15px; font-weight: 400; background-color: rgb(255, 255, 255);&quot;&gt;&lt;/span&gt;&lt;span style=&quot;box-sizing: inherit; color: mediumblue; font-family: Consolas, Menlo, &amp;quot;courier new&amp;quot;, monospace; font-size: 15px; font-weight: 400; background-color: rgb(255, 255, 255);&quot; class=&quot;sqlkeywordcolor&quot;&gt;WHERE&lt;/span&gt;&lt;span style=&quot;font-family: Consolas, Menlo, &amp;quot;courier new&amp;quot;, monospace; font-size: 15px; font-weight: 400; background-color: rgb(255, 255, 255);&quot;&gt;&amp;nbsp;Country =&amp;nbsp;&lt;/span&gt;&lt;span style=&quot;box-sizing: inherit; color: brown; font-family: Consolas, Menlo, &amp;quot;courier new&amp;quot;, monospace; font-size: 15px; font-weight: 400; background-color: rgb(255, 255, 255);&quot; class=&quot;sqlstringcolor&quot;&gt;&#39;Germany&#39;&lt;/span&gt;&lt;span style=&quot;box-sizing: inherit; color: red; font-family: Consolas, Menlo, &amp;quot;courier new&amp;quot;, monospace; font-size: 15px; font-weight: 400; background-color: rgb(255, 255, 255);&quot; class=&quot;sqlnumbercolor&quot;&gt;&amp;nbsp;&lt;/span&gt;&lt;span style=&quot;font-family: Consolas, Menlo, &amp;quot;courier new&amp;quot;, monospace; font-size: 15px; font-weight: 400; background-color: rgb(255, 255, 255);&quot;&gt;&lt;/span&gt;&lt;span style=&quot;box-sizing: inherit; color: mediumblue; font-family: Consolas, Menlo, &amp;quot;courier new&amp;quot;, monospace; font-size: 15px; font-weight: 400; background-color: rgb(255, 255, 255);&quot; class=&quot;sqlkeywordcolor&quot;&gt;AND&lt;/span&gt;&lt;span style=&quot;font-family: Consolas, Menlo, &amp;quot;courier new&amp;quot;, monospace; font-size: 15px; font-weight: 400; background-color: rgb(255, 255, 255);&quot;&gt;&amp;nbsp;City =&amp;nbsp;&lt;/span&gt;&lt;span style=&quot;box-sizing: inherit; color: brown; font-family: Consolas, Menlo, &amp;quot;courier new&amp;quot;, monospace; font-size: 15px; font-weight: 400; background-color: rgb(255, 255, 255);&quot; class=&quot;sqlstringcolor&quot;&gt;&#39;Berlin&#39;&lt;/span&gt;&lt;span style=&quot;font-family: Consolas, Menlo, &amp;quot;courier new&amp;quot;, monospace; font-size: 15px; font-weight: 400; background-color: rgb(255, 255, 255);&quot;&gt;;&lt;/span&gt;&lt;br&gt;&lt;/h1&gt;&lt;div&gt;&lt;span style=&quot;box-sizing: inherit; color: mediumblue; font-family: Consolas, Menlo, &amp;quot;courier new&amp;quot;, monospace; font-size: 15px; background-color: rgb(255, 255, 255);&quot; class=&quot;sqlkeywordcolor&quot;&gt;SELECT&lt;/span&gt;&lt;span style=&quot;font-family: Consolas, Menlo, &amp;quot;courier new&amp;quot;, monospace; font-size: 15px; background-color: rgb(255, 255, 255);&quot;&gt;&amp;nbsp;*&amp;nbsp;&lt;/span&gt;&lt;span style=&quot;box-sizing: inherit; color: mediumblue; font-family: Consolas, Menlo, &amp;quot;courier new&amp;quot;, monospace; font-size: 15px; background-color: rgb(255, 255, 255);&quot; class=&quot;sqlkeywordcolor&quot;&gt;FROM&lt;/span&gt;&lt;span style=&quot;font-family: Consolas, Menlo, &amp;quot;courier new&amp;quot;, monospace; font-size: 15px; background-color: rgb(255, 255, 255);&quot;&gt;&amp;nbsp;Customers&lt;/span&gt;&lt;br style=&quot;box-sizing: inherit; font-family: Consolas, Menlo, &amp;quot;courier new&amp;quot;, monospace; font-size: 15px; background-color: rgb(255, 255, 255);&quot;&gt;&lt;span style=&quot;box-sizing: inherit; color: red; font-family: Consolas, Menlo, &amp;quot;courier new&amp;quot;, monospace; font-size: 15px; background-color: rgb(255, 255, 255);&quot; class=&quot;sqlnumbercolor&quot;&gt;&lt;/span&gt;&lt;span style=&quot;font-family: Consolas, Menlo, &amp;quot;courier new&amp;quot;, monospace; font-size: 15px; background-color: rgb(255, 255, 255);&quot;&gt;&lt;/span&gt;&lt;span style=&quot;box-sizing: inherit; color: mediumblue; font-family: Consolas, Menlo, &amp;quot;courier new&amp;quot;, monospace; font-size: 15px; background-color: rgb(255, 255, 255);&quot; class=&quot;sqlkeywordcolor&quot;&gt;WHERE&lt;/span&gt;&lt;span style=&quot;font-family: Consolas, Menlo, &amp;quot;courier new&amp;quot;, monospace; font-size: 15px; background-color: rgb(255, 255, 255);&quot;&gt;&amp;nbsp;Country =&amp;nbsp;&lt;/span&gt;&lt;span style=&quot;box-sizing: inherit; color: brown; font-family: Consolas, Menlo, &amp;quot;courier new&amp;quot;, monospace; font-size: 15px; background-color: rgb(255, 255, 255);&quot; class=&quot;sqlstringcolor&quot;&gt;&#39;Germany&#39;&lt;/span&gt;&lt;span style=&quot;box-sizing: inherit; color: red; font-family: Consolas, Menlo, &amp;quot;courier new&amp;quot;, monospace; font-size: 15px; background-color: rgb(255, 255, 255);&quot; class=&quot;sqlnumbercolor&quot;&gt;&amp;nbsp;&lt;/span&gt;&lt;span style=&quot;box-sizing: inherit; font-family: Consolas, Menlo, &amp;quot;courier new&amp;quot;, monospace; font-size: 15px; background-color: rgb(255, 255, 255);&quot; class=&quot;sqlnumbercolor&quot;&gt;&lt;font color=&quot;#0000cd&quot;&gt;OR&lt;/font&gt;&lt;/span&gt;&lt;span style=&quot;font-family: Consolas, Menlo, &amp;quot;courier new&amp;quot;, monospace; font-size: 15px; background-color: rgb(255, 255, 255);&quot;&gt;&amp;nbsp;City =&amp;nbsp;&lt;/span&gt;&lt;span style=&quot;box-sizing: inherit; color: brown; font-family: Consolas, Menlo, &amp;quot;courier new&amp;quot;, monospace; font-size: 15px; background-color: rgb(255, 255, 255);&quot; class=&quot;sqlstringcolor&quot;&gt;&#39;Berlin&#39;&lt;/span&gt;&lt;span style=&quot;font-family: Consolas, Menlo, &amp;quot;courier new&amp;quot;, monospace; font-size: 15px; background-color: rgb(255, 255, 255);&quot;&gt;;&lt;/span&gt;&lt;span style=&quot;font-family: Consolas, Menlo, &amp;quot;courier new&amp;quot;, monospace; font-size: 15px; font-weight: 400; background-color: rgb(255, 255, 255);&quot;&gt;&lt;br&gt;&lt;/span&gt;&lt;/div&gt;" style="text;html=1;strokeColor=none;fillColor=none;spacing=5;spacingTop=-20;whiteSpace=wrap;overflow=hidden;rounded=0;fontSize=14;" vertex="1" parent="1">
          <mxGeometry x="-395" y="750" width="350" height="350" as="geometry" />
        </mxCell>
        <mxCell id="eOfyg0MxlrnqCq6HVbgy-14" value="&lt;h1&gt;CREATE INDEX&lt;/h1&gt;&lt;div&gt;&lt;span style=&quot;font-family: Verdana, sans-serif; font-size: 15px; background-color: rgb(255, 255, 255);&quot;&gt;creates an index named &quot;idx_lastname&quot; on the &quot;LastName&quot; column in the &quot;Persons&quot; table&lt;/span&gt;&lt;br&gt;&lt;/div&gt;&lt;div&gt;&lt;span style=&quot;font-family: Verdana, sans-serif; font-size: 15px; background-color: rgb(255, 255, 255);&quot;&gt;&lt;br&gt;&lt;/span&gt;&lt;/div&gt;&lt;div&gt;&lt;span style=&quot;box-sizing: inherit; color: mediumblue; font-family: Consolas, Menlo, &amp;quot;courier new&amp;quot;, monospace; font-size: 15px; background-color: rgb(255, 255, 255);&quot; class=&quot;sqlkeywordcolor&quot;&gt;CREATE&lt;/span&gt;&lt;span style=&quot;font-family: Consolas, Menlo, &amp;quot;courier new&amp;quot;, monospace; font-size: 15px; background-color: rgb(255, 255, 255);&quot;&gt;&amp;nbsp;&lt;/span&gt;&lt;span style=&quot;box-sizing: inherit; color: mediumblue; font-family: Consolas, Menlo, &amp;quot;courier new&amp;quot;, monospace; font-size: 15px; background-color: rgb(255, 255, 255);&quot; class=&quot;sqlkeywordcolor&quot;&gt;INDEX&lt;/span&gt;&lt;span style=&quot;font-family: Consolas, Menlo, &amp;quot;courier new&amp;quot;, monospace; font-size: 15px; background-color: rgb(255, 255, 255);&quot;&gt;&amp;nbsp;idx_lastname&lt;/span&gt;&lt;br style=&quot;box-sizing: inherit; font-family: Consolas, Menlo, &amp;quot;courier new&amp;quot;, monospace; font-size: 15px; background-color: rgb(255, 255, 255);&quot;&gt;&lt;span style=&quot;box-sizing: inherit; color: mediumblue; font-family: Consolas, Menlo, &amp;quot;courier new&amp;quot;, monospace; font-size: 15px; background-color: rgb(255, 255, 255);&quot; class=&quot;sqlkeywordcolor&quot;&gt;ON&lt;/span&gt;&lt;span style=&quot;font-family: Consolas, Menlo, &amp;quot;courier new&amp;quot;, monospace; font-size: 15px; background-color: rgb(255, 255, 255);&quot;&gt;&amp;nbsp;Persons (LastName);&lt;/span&gt;&lt;br&gt;&lt;/div&gt;" style="text;html=1;strokeColor=none;fillColor=none;spacing=5;spacingTop=-20;whiteSpace=wrap;overflow=hidden;rounded=0;fontSize=14;" vertex="1" parent="1">
          <mxGeometry x="-830" y="190" width="330" height="180" as="geometry" />
        </mxCell>
        <mxCell id="eOfyg0MxlrnqCq6HVbgy-15" value="&lt;h1&gt;&lt;span style=&quot;background-color: initial;&quot;&gt;DATA TYPES&lt;/span&gt;&lt;/h1&gt;&lt;h1&gt;&lt;span style=&quot;font-size: 14px; font-weight: 400;&quot;&gt;INT&lt;br&gt;FLOAT&lt;br&gt;DOUBLE&lt;/span&gt;&lt;/h1&gt;&lt;div&gt;&lt;span style=&quot;font-size: 14px; font-weight: 400;&quot;&gt;CHAR&lt;/span&gt;&lt;/div&gt;&lt;div&gt;&lt;span style=&quot;font-size: 14px; font-weight: 400;&quot;&gt;VARCHAR&lt;/span&gt;&lt;/div&gt;&lt;div&gt;&lt;span style=&quot;font-size: 14px; font-weight: 400;&quot;&gt;DATE(YYYY_MM_DD)&lt;/span&gt;&lt;/div&gt;&lt;div&gt;DATETIME&lt;/div&gt;&lt;span style=&quot;font-family: Verdana, sans-serif; font-size: 15px; background-color: rgb(255, 255, 255);&quot;&gt;&amp;nbsp;(YYYY-MM-DD hh:mm:ss.)&lt;/span&gt;&lt;div&gt;&lt;span style=&quot;background-color: initial; font-size: 14px; font-weight: normal;&quot;&gt;&lt;br&gt;&lt;/span&gt;&lt;/div&gt;" style="text;html=1;strokeColor=none;fillColor=none;spacing=5;spacingTop=-20;whiteSpace=wrap;overflow=hidden;rounded=0;fontSize=14;" vertex="1" parent="1">
          <mxGeometry x="10" y="400" width="310" height="310" as="geometry" />
        </mxCell>
        <mxCell id="k0TVll1yEAW2oXaKBI6j-1" value="&lt;h1&gt;FULL JOIN&lt;/h1&gt;&lt;div&gt;&lt;p style=&quot;box-sizing: inherit; margin-top: 1.2em; margin-bottom: 1.2em;&quot;&gt;&lt;font face=&quot;Verdana, sans-serif&quot;&gt;&lt;span style=&quot;font-size: 15px; background-color: rgb(255, 255, 255);&quot;&gt;FULL JOIN keyword returns all records when there is a match in left (table1) or right (table2) table records.&lt;/span&gt;&lt;/font&gt;&lt;/p&gt;&lt;/div&gt;&lt;div&gt;&lt;br&gt;&lt;/div&gt;" style="text;html=1;strokeColor=none;fillColor=none;spacing=5;spacingTop=-20;whiteSpace=wrap;overflow=hidden;rounded=0;fontSize=10;" vertex="1" parent="1">
          <mxGeometry x="-425" y="350" width="420" height="200" as="geometry" />
        </mxCell>
        <mxCell id="1Oz8NO2Gu6kPdrDcenhH-3" value="&lt;h1&gt;Having&lt;/h1&gt;&lt;div&gt;&lt;p style=&quot;box-sizing: inherit; margin-top: 1.2em; margin-bottom: 1.2em; font-size: 15px; font-family: Verdana, sans-serif; background-color: rgb(255, 255, 255);&quot;&gt;The&amp;nbsp;&lt;code style=&quot;box-sizing: inherit; font-family: Consolas, Menlo, &amp;quot;courier new&amp;quot;, monospace; font-size: 15.75px; color: crimson; background-color: rgba(222, 222, 222, 0.3); padding-left: 4px; padding-right: 4px;&quot; class=&quot;w3-codespan&quot;&gt;HAVING&lt;/code&gt;&amp;nbsp;clause was added to SQL because the&amp;nbsp;&lt;code style=&quot;box-sizing: inherit; font-family: Consolas, Menlo, &amp;quot;courier new&amp;quot;, monospace; font-size: 15.75px; color: crimson; background-color: rgba(222, 222, 222, 0.3); padding-left: 4px; padding-right: 4px;&quot; class=&quot;w3-codespan&quot;&gt;WHERE&lt;/code&gt;&amp;nbsp;keyword cannot be used with aggregate functions.&lt;/p&gt;&lt;/div&gt;&lt;div&gt;&lt;br&gt;&lt;/div&gt;&lt;div&gt;&lt;span style=&quot;box-sizing: inherit; color: mediumblue; font-family: Consolas, Menlo, &amp;quot;courier new&amp;quot;, monospace; font-size: 15px; background-color: rgb(255, 255, 255);&quot; class=&quot;sqlkeywordcolor&quot;&gt;SELECT&lt;/span&gt;&lt;span style=&quot;font-family: Consolas, Menlo, &amp;quot;courier new&amp;quot;, monospace; font-size: 15px; background-color: rgb(255, 255, 255);&quot;&gt;&amp;nbsp;&lt;/span&gt;&lt;span style=&quot;box-sizing: inherit; color: mediumblue; font-family: Consolas, Menlo, &amp;quot;courier new&amp;quot;, monospace; font-size: 15px; background-color: rgb(255, 255, 255);&quot; class=&quot;sqlkeywordcolor&quot;&gt;COUNT&lt;/span&gt;&lt;span style=&quot;font-family: Consolas, Menlo, &amp;quot;courier new&amp;quot;, monospace; font-size: 15px; background-color: rgb(255, 255, 255);&quot;&gt;(CustomerID), Country&lt;/span&gt;&lt;br style=&quot;box-sizing: inherit; font-family: Consolas, Menlo, &amp;quot;courier new&amp;quot;, monospace; font-size: 15px; background-color: rgb(255, 255, 255);&quot;&gt;&lt;span style=&quot;box-sizing: inherit; color: mediumblue; font-family: Consolas, Menlo, &amp;quot;courier new&amp;quot;, monospace; font-size: 15px; background-color: rgb(255, 255, 255);&quot; class=&quot;sqlkeywordcolor&quot;&gt;FROM&lt;/span&gt;&lt;span style=&quot;font-family: Consolas, Menlo, &amp;quot;courier new&amp;quot;, monospace; font-size: 15px; background-color: rgb(255, 255, 255);&quot;&gt;&amp;nbsp;Customers&lt;/span&gt;&lt;br style=&quot;box-sizing: inherit; font-family: Consolas, Menlo, &amp;quot;courier new&amp;quot;, monospace; font-size: 15px; background-color: rgb(255, 255, 255);&quot;&gt;&lt;span style=&quot;box-sizing: inherit; color: mediumblue; font-family: Consolas, Menlo, &amp;quot;courier new&amp;quot;, monospace; font-size: 15px; background-color: rgb(255, 255, 255);&quot; class=&quot;sqlkeywordcolor&quot;&gt;GROUP&lt;/span&gt;&lt;span style=&quot;font-family: Consolas, Menlo, &amp;quot;courier new&amp;quot;, monospace; font-size: 15px; background-color: rgb(255, 255, 255);&quot;&gt;&amp;nbsp;&lt;/span&gt;&lt;span style=&quot;box-sizing: inherit; color: mediumblue; font-family: Consolas, Menlo, &amp;quot;courier new&amp;quot;, monospace; font-size: 15px; background-color: rgb(255, 255, 255);&quot; class=&quot;sqlkeywordcolor&quot;&gt;BY&lt;/span&gt;&lt;span style=&quot;font-family: Consolas, Menlo, &amp;quot;courier new&amp;quot;, monospace; font-size: 15px; background-color: rgb(255, 255, 255);&quot;&gt;&amp;nbsp;Country&lt;/span&gt;&lt;br style=&quot;box-sizing: inherit; font-family: Consolas, Menlo, &amp;quot;courier new&amp;quot;, monospace; font-size: 15px; background-color: rgb(255, 255, 255);&quot;&gt;&lt;span style=&quot;box-sizing: inherit; color: red; font-family: Consolas, Menlo, &amp;quot;courier new&amp;quot;, monospace; font-size: 15px; background-color: rgb(255, 255, 255);&quot; class=&quot;sqlnumbercolor&quot;&gt;&lt;/span&gt;&lt;span style=&quot;font-family: Consolas, Menlo, &amp;quot;courier new&amp;quot;, monospace; font-size: 15px; background-color: rgb(255, 255, 255);&quot;&gt;&lt;/span&gt;&lt;span style=&quot;box-sizing: inherit; color: mediumblue; font-family: Consolas, Menlo, &amp;quot;courier new&amp;quot;, monospace; font-size: 15px; background-color: rgb(255, 255, 255);&quot; class=&quot;sqlkeywordcolor&quot;&gt;HAVING&lt;/span&gt;&lt;span style=&quot;font-family: Consolas, Menlo, &amp;quot;courier new&amp;quot;, monospace; font-size: 15px; background-color: rgb(255, 255, 255);&quot;&gt;&amp;nbsp;&lt;/span&gt;&lt;span style=&quot;box-sizing: inherit; color: mediumblue; font-family: Consolas, Menlo, &amp;quot;courier new&amp;quot;, monospace; font-size: 15px; background-color: rgb(255, 255, 255);&quot; class=&quot;sqlkeywordcolor&quot;&gt;COUNT&lt;/span&gt;&lt;span style=&quot;font-family: Consolas, Menlo, &amp;quot;courier new&amp;quot;, monospace; font-size: 15px; background-color: rgb(255, 255, 255);&quot;&gt;(CustomerID) &amp;gt;&amp;nbsp;&lt;/span&gt;&lt;span style=&quot;box-sizing: inherit; color: red; font-family: Consolas, Menlo, &amp;quot;courier new&amp;quot;, monospace; font-size: 15px; background-color: rgb(255, 255, 255);&quot; class=&quot;sqlnumbercolor&quot;&gt;5&lt;/span&gt;&lt;span style=&quot;font-family: Consolas, Menlo, &amp;quot;courier new&amp;quot;, monospace; font-size: 15px; background-color: rgb(255, 255, 255);&quot;&gt;;&lt;/span&gt;&lt;br&gt;&lt;/div&gt;" style="text;html=1;strokeColor=none;fillColor=none;spacing=5;spacingTop=-20;whiteSpace=wrap;overflow=hidden;rounded=0;fontSize=14;" vertex="1" parent="1">
          <mxGeometry x="20" y="20" width="370" height="260" as="geometry" />
        </mxCell>
        <mxCell id="1Oz8NO2Gu6kPdrDcenhH-6" value="&lt;h1&gt;Normalization&amp;nbsp;&lt;/h1&gt;&lt;p&gt;Database normalization is a database schema design technique, by which an existing schema is modified to minimize redundancy and dependency of data.&lt;br&gt;&lt;/p&gt;" style="text;html=1;strokeColor=none;fillColor=none;spacing=5;spacingTop=-20;whiteSpace=wrap;overflow=hidden;rounded=0;fontSize=14;" vertex="1" parent="1">
          <mxGeometry x="350" y="220" width="460" height="140" as="geometry" />
        </mxCell>
        <mxCell id="1Oz8NO2Gu6kPdrDcenhH-7" value="&lt;h1&gt;1NF&lt;/h1&gt;&lt;p&gt;&lt;span style=&quot;color: rgb(32, 33, 36); font-family: arial, sans-serif; font-size: 16px; background-color: rgb(255, 255, 255);&quot;&gt;A relation is in 1NF if it contains an atomic value.&lt;/span&gt;&lt;br&gt;&lt;/p&gt;&lt;p&gt;&lt;font face=&quot;arial, sans-serif&quot; color=&quot;#202124&quot;&gt;&lt;span style=&quot;font-size: 16px; background-color: rgb(255, 255, 255);&quot;&gt;For example if we consider an employee table with columns like Employee id, name, phone num. Here only one phone number should be for each employee.&lt;/span&gt;&lt;/font&gt;&lt;/p&gt;" style="text;html=1;strokeColor=none;fillColor=none;spacing=5;spacingTop=-20;whiteSpace=wrap;overflow=hidden;rounded=0;fontSize=14;" vertex="1" parent="1">
          <mxGeometry x="350" y="370" width="390" height="210" as="geometry" />
        </mxCell>
        <mxCell id="1Oz8NO2Gu6kPdrDcenhH-8" value="&lt;h1&gt;2NF&lt;/h1&gt;&lt;div&gt;A relation is said to be 2NF when it is in 1NF and all non primary key attributes are fully functionally dependent on the candidate key.&lt;/div&gt;&lt;div&gt;&lt;br&gt;&lt;/div&gt;&lt;div&gt;Example: Consider a table with&amp;nbsp;&lt;/div&gt;&lt;code style=&quot;text-align: justify; box-sizing: border-box; word-break: break-word;&quot;&gt;&lt;span style=&quot;color: rgb(232, 62, 140); font-family: SFMono-Regular, Menlo, Monaco, Consolas, &amp;quot;Liberation Mono&amp;quot;, &amp;quot;Courier New&amp;quot;, monospace; box-sizing: border-box; font-weight: bolder;&quot;&gt;Emplyoee ID&lt;/span&gt;&lt;font face=&quot;SFMono-Regular, Menlo, Monaco, Consolas, Liberation Mono, Courier New, monospace&quot; color=&quot;#e83e8c&quot;&gt;,&amp;nbsp;&lt;/font&gt;&lt;span style=&quot;box-sizing: border-box; font-weight: bolder;&quot;&gt;&lt;font face=&quot;SFMono-Regular, Menlo, Monaco, Consolas, Liberation Mono, Courier New, monospace&quot; color=&quot;#e83e8c&quot;&gt;Department ID&lt;/font&gt;&lt;font face=&quot;Open Sans, sans-serif&quot; color=&quot;#4a4a4a&quot;&gt;&lt;span style=&quot;font-size: 16px;&quot;&gt;,&amp;nbsp;&lt;/span&gt;&lt;/font&gt;&lt;/span&gt;&lt;/code&gt;&lt;span style=&quot;color: rgb(74, 74, 74); font-family: &amp;quot;Open Sans&amp;quot;, sans-serif; font-size: 16px; text-align: justify; box-sizing: border-box; font-weight: bolder;&quot;&gt;&lt;code style=&quot;box-sizing: border-box; font-family: SFMono-Regular, Menlo, Monaco, Consolas, &amp;quot;Liberation Mono&amp;quot;, &amp;quot;Courier New&amp;quot;, monospace; font-size: 14px; color: rgb(232, 62, 140); word-break: break-word;&quot;&gt;Office Location&lt;/code&gt;&lt;/span&gt;&lt;span style=&quot;color: rgb(74, 74, 74); font-family: &amp;quot;Open Sans&amp;quot;, sans-serif; font-size: 16px; text-align: justify;&quot;&gt;.&lt;/span&gt;&lt;div&gt;&lt;p style=&quot;box-sizing: border-box; margin-top: 0px; margin-bottom: 1rem; font-size: 16px; line-height: 1.7; word-break: break-word; color: rgb(74, 74, 74); font-family: &amp;quot;Open Sans&amp;quot;, sans-serif; text-align: justify;&quot;&gt;This table has a composite&amp;nbsp;&lt;a style=&quot;box-sizing: border-box; color: rgb(0, 123, 255); text-decoration-line: none; background-color: transparent;&quot; target=&quot;_blank&quot; href=&quot;https://www.edureka.co/blog/primary-key-in-sql/&quot; rel=&quot;noopener noreferrer&quot;&gt;primary key&lt;/a&gt;&amp;nbsp;&lt;code style=&quot;box-sizing: border-box; font-family: SFMono-Regular, Menlo, Monaco, Consolas, &amp;quot;Liberation Mono&amp;quot;, &amp;quot;Courier New&amp;quot;, monospace; font-size: 14px; color: rgb(232, 62, 140); word-break: break-word;&quot;&gt;&lt;span style=&quot;box-sizing: border-box; font-weight: bolder;&quot;&gt;Emplyoee ID&lt;/span&gt;,&amp;nbsp;&lt;span style=&quot;box-sizing: border-box; font-weight: bolder;&quot;&gt;Department ID&lt;/span&gt;&lt;/code&gt;. The non-key attribute is&amp;nbsp;&lt;span style=&quot;box-sizing: border-box; font-weight: bolder;&quot;&gt;&lt;code style=&quot;box-sizing: border-box; font-family: SFMono-Regular, Menlo, Monaco, Consolas, &amp;quot;Liberation Mono&amp;quot;, &amp;quot;Courier New&amp;quot;, monospace; font-size: 14px; color: rgb(232, 62, 140); word-break: break-word;&quot;&gt;Office Location&lt;/code&gt;&lt;/span&gt;. In this case,&amp;nbsp;&lt;span style=&quot;box-sizing: border-box; font-weight: bolder;&quot;&gt;&lt;code style=&quot;box-sizing: border-box; font-family: SFMono-Regular, Menlo, Monaco, Consolas, &amp;quot;Liberation Mono&amp;quot;, &amp;quot;Courier New&amp;quot;, monospace; font-size: 14px; color: rgb(232, 62, 140); word-break: break-word;&quot;&gt;Office Location&lt;/code&gt;&lt;/span&gt;&amp;nbsp;only depends on&amp;nbsp;&lt;span style=&quot;box-sizing: border-box; font-weight: bolder;&quot;&gt;&lt;code style=&quot;box-sizing: border-box; font-family: SFMono-Regular, Menlo, Monaco, Consolas, &amp;quot;Liberation Mono&amp;quot;, &amp;quot;Courier New&amp;quot;, monospace; font-size: 14px; color: rgb(232, 62, 140); word-break: break-word;&quot;&gt;Department ID&lt;/code&gt;&lt;/span&gt;, which is only part of the primary key. Therefore, this table does not satisfy the second Normal Form.&lt;/p&gt;&lt;/div&gt;&lt;div&gt;&lt;br&gt;&lt;/div&gt;" style="text;html=1;strokeColor=none;fillColor=none;spacing=5;spacingTop=-20;whiteSpace=wrap;overflow=hidden;rounded=0;fontSize=14;" vertex="1" parent="1">
          <mxGeometry x="360" y="590" width="630" height="320" as="geometry" />
        </mxCell>
      </root>
    </mxGraphModel>
  </diagram>
  <diagram id="-MpZD1-NpxKx7EY4KF9y" name="Page-2">
    <mxGraphModel dx="1397" dy="523" grid="1" gridSize="10" guides="1" tooltips="1" connect="1" arrows="1" fold="1" page="1" pageScale="1" pageWidth="850" pageHeight="1100" math="0" shadow="0">
      <root>
        <mxCell id="0" />
        <mxCell id="1" parent="0" />
        <mxCell id="IfU87mQ8qw8VZQHGrUHf-1" value="&lt;h1&gt;INTRODUCTION&lt;/h1&gt;&lt;div&gt;Hi My self Swathi Uppala. I have done my graduation in BSc computers.&lt;/div&gt;&lt;div&gt;&lt;br&gt;&lt;/div&gt;&lt;div&gt;*I have 2 yesrs of experience&amp;nbsp;&lt;/div&gt;as a Coding instructor and mentoring teachers in whitehatjr&lt;div&gt;Currently am working in whitehat jr .&amp;nbsp;&lt;/div&gt;&lt;div&gt;* I have a practical exposure of&amp;nbsp;&lt;/div&gt;HTML, CSS, Bootstarp , JS&amp;nbsp;&lt;span style=&quot;background-color: initial;&quot;&gt;&amp;nbsp;created websites using the same.&amp;nbsp;&lt;/span&gt;&lt;br&gt;&lt;div&gt;&lt;br&gt;&lt;/div&gt;&lt;div&gt;I have&amp;nbsp; created few games and apps using block based coding in whitehat, Everything I have done is the part of the curriculum&amp;nbsp;.They provide a study material where we have to self learn and teach students.&lt;/div&gt;&lt;div&gt;&lt;br&gt;&lt;/div&gt;&lt;div&gt;And am a very good problem solver and thought of up-skill and joined scaler. I have learnt DSA and completed 400+ programs in scaler platform.&amp;nbsp;&lt;/div&gt;&lt;div&gt;I have a good command on DSA, basics of mysql as part of syllabus in graduation , HTML, CSS, Bootstarp.&lt;/div&gt;&lt;div&gt;My strengths are that I have good logical ability and am a fast learner too.&lt;/div&gt;&lt;div&gt;&amp;nbsp;&lt;/div&gt;" style="text;html=1;strokeColor=none;fillColor=none;spacing=5;spacingTop=-20;whiteSpace=wrap;overflow=hidden;rounded=0;fontSize=14;" vertex="1" parent="1">
          <mxGeometry x="40" y="20" width="900" height="370" as="geometry" />
        </mxCell>
      </root>
    </mxGraphModel>
  </diagram>
</mxfile>
